<mxfile host="app.diagrams.net" agent="Mozilla/5.0 (Windows NT 10.0; Win64; x64) AppleWebKit/537.36 (KHTML, like Gecko) Chrome/138.0.0.0 Safari/537.36" version="27.2.0">
  <diagram name="Page-1" id="RWy-0xm5yn3hY2aeJbOU">
    <mxGraphModel dx="1043" dy="561" grid="1" gridSize="10" guides="1" tooltips="1" connect="1" arrows="1" fold="1" page="1" pageScale="1" pageWidth="850" pageHeight="1100" math="0" shadow="0">
      <root>
        <mxCell id="0" />
        <mxCell id="1" parent="0" />
        <mxCell id="_QJLHwrfjWrxB1qWGyoU-1" value="Level Editor" style="rounded=0;whiteSpace=wrap;html=1;" vertex="1" parent="1">
          <mxGeometry x="370" y="100" width="80" height="30" as="geometry" />
        </mxCell>
        <mxCell id="_QJLHwrfjWrxB1qWGyoU-4" value="Camera" style="rounded=1;whiteSpace=wrap;html=1;" vertex="1" parent="1">
          <mxGeometry x="260" y="190" width="70" height="30" as="geometry" />
        </mxCell>
        <mxCell id="_QJLHwrfjWrxB1qWGyoU-7" value="" style="endArrow=classic;html=1;rounded=0;exitX=0;exitY=1;exitDx=0;exitDy=0;entryX=0.5;entryY=0;entryDx=0;entryDy=0;fillColor=#e3c800;strokeColor=light-dark(#B09500,#FFFF00);" edge="1" parent="1" source="_QJLHwrfjWrxB1qWGyoU-1" target="_QJLHwrfjWrxB1qWGyoU-4">
          <mxGeometry relative="1" as="geometry">
            <mxPoint x="410" y="150" as="sourcePoint" />
            <mxPoint x="510" y="150" as="targetPoint" />
          </mxGeometry>
        </mxCell>
        <mxCell id="_QJLHwrfjWrxB1qWGyoU-8" value="camera_moved" style="edgeLabel;resizable=0;html=1;;align=center;verticalAlign=middle;" connectable="0" vertex="1" parent="_QJLHwrfjWrxB1qWGyoU-7">
          <mxGeometry relative="1" as="geometry">
            <mxPoint x="-12" as="offset" />
          </mxGeometry>
        </mxCell>
        <mxCell id="_QJLHwrfjWrxB1qWGyoU-9" value="TrackLineManager" style="rounded=1;whiteSpace=wrap;html=1;" vertex="1" parent="1">
          <mxGeometry x="360" y="200" width="115" height="30" as="geometry" />
        </mxCell>
        <mxCell id="_QJLHwrfjWrxB1qWGyoU-13" value="" style="endArrow=classic;html=1;rounded=0;exitX=0.5;exitY=1;exitDx=0;exitDy=0;entryX=0.455;entryY=-0.028;entryDx=0;entryDy=0;entryPerimeter=0;strokeColor=light-dark(#000000,#FFFF33);" edge="1" parent="1" source="_QJLHwrfjWrxB1qWGyoU-1" target="_QJLHwrfjWrxB1qWGyoU-9">
          <mxGeometry relative="1" as="geometry">
            <mxPoint x="410" y="150" as="sourcePoint" />
            <mxPoint x="510" y="150" as="targetPoint" />
          </mxGeometry>
        </mxCell>
        <mxCell id="_QJLHwrfjWrxB1qWGyoU-14" value="lines_cleared" style="edgeLabel;resizable=0;html=1;;align=center;verticalAlign=middle;" connectable="0" vertex="1" parent="_QJLHwrfjWrxB1qWGyoU-13">
          <mxGeometry relative="1" as="geometry" />
        </mxCell>
        <mxCell id="_QJLHwrfjWrxB1qWGyoU-15" value="" style="endArrow=classic;html=1;rounded=0;exitX=0.5;exitY=1;exitDx=0;exitDy=0;entryX=0.5;entryY=0;entryDx=0;entryDy=0;" edge="1" parent="1" source="_QJLHwrfjWrxB1qWGyoU-9" target="_QJLHwrfjWrxB1qWGyoU-16">
          <mxGeometry width="50" height="50" relative="1" as="geometry">
            <mxPoint x="417.08" y="250" as="sourcePoint" />
            <mxPoint x="417" y="280" as="targetPoint" />
          </mxGeometry>
        </mxCell>
        <mxCell id="_QJLHwrfjWrxB1qWGyoU-16" value="TrackLine" style="rounded=1;whiteSpace=wrap;html=1;" vertex="1" parent="1">
          <mxGeometry x="360" y="270" width="115" height="30" as="geometry" />
        </mxCell>
        <mxCell id="_QJLHwrfjWrxB1qWGyoU-18" value="Legend" style="shape=table;startSize=30;container=1;collapsible=0;childLayout=tableLayout;fontSize=16;align=left;verticalAlign=top;fontStyle=1;spacingLeft=6;spacing=0;resizable=0;" vertex="1" parent="1">
          <mxGeometry x="10" y="40" width="180" height="90" as="geometry" />
        </mxCell>
        <mxCell id="_QJLHwrfjWrxB1qWGyoU-19" value="" style="shape=tableRow;horizontal=0;startSize=0;swimlaneHead=0;swimlaneBody=0;strokeColor=inherit;top=0;left=0;bottom=0;right=0;collapsible=0;dropTarget=0;fillColor=none;points=[[0,0.5],[1,0.5]];portConstraint=eastwest;fontSize=12;" vertex="1" parent="_QJLHwrfjWrxB1qWGyoU-18">
          <mxGeometry y="30" width="180" height="30" as="geometry" />
        </mxCell>
        <mxCell id="_QJLHwrfjWrxB1qWGyoU-20" value="Has a signal to" style="shape=partialRectangle;html=1;whiteSpace=wrap;connectable=0;strokeColor=inherit;overflow=hidden;fillColor=light-dark(#000000,#FFFF33);top=0;left=0;bottom=0;right=0;pointerEvents=1;fontSize=12;align=left;fontColor=#FFFFFF;gradientColor=none;spacingLeft=10;spacingRight=4;" vertex="1" parent="_QJLHwrfjWrxB1qWGyoU-19">
          <mxGeometry width="180" height="30" as="geometry">
            <mxRectangle width="180" height="30" as="alternateBounds" />
          </mxGeometry>
        </mxCell>
        <mxCell id="_QJLHwrfjWrxB1qWGyoU-21" value="" style="shape=tableRow;horizontal=0;startSize=0;swimlaneHead=0;swimlaneBody=0;strokeColor=inherit;top=0;left=0;bottom=0;right=0;collapsible=0;dropTarget=0;fillColor=none;points=[[0,0.5],[1,0.5]];portConstraint=eastwest;fontSize=12;" vertex="1" parent="_QJLHwrfjWrxB1qWGyoU-18">
          <mxGeometry y="60" width="180" height="30" as="geometry" />
        </mxCell>
        <mxCell id="_QJLHwrfjWrxB1qWGyoU-22" value="Manages" style="shape=partialRectangle;html=1;whiteSpace=wrap;connectable=0;strokeColor=inherit;overflow=hidden;fillColor=light-dark(#3162AF,#E3E3E3);top=0;left=0;bottom=0;right=0;pointerEvents=1;fontSize=12;align=left;fontColor=#FFFFFF;gradientColor=none;spacingLeft=10;spacingRight=4;" vertex="1" parent="_QJLHwrfjWrxB1qWGyoU-21">
          <mxGeometry width="180" height="30" as="geometry">
            <mxRectangle width="180" height="30" as="alternateBounds" />
          </mxGeometry>
        </mxCell>
      </root>
    </mxGraphModel>
  </diagram>
</mxfile>
